<mxfile host="65bd71144e">
    <diagram id="2wql6HsE7xNDPAMDw4sS" name="概要">
        <mxGraphModel dx="1778" dy="935" grid="1" gridSize="10" guides="1" tooltips="1" connect="1" arrows="1" fold="1" page="0" pageScale="1" pageWidth="827" pageHeight="1169" math="0" shadow="0">
            <root>
                <mxCell id="0"/>
                <mxCell id="1" parent="0"/>
                <mxCell id="15" style="edgeStyle=none;html=1;" parent="1" edge="1">
                    <mxGeometry relative="1" as="geometry">
                        <mxPoint x="50" y="440" as="targetPoint"/>
                        <mxPoint x="220" y="440" as="sourcePoint"/>
                    </mxGeometry>
                </mxCell>
                <mxCell id="7" value="サーバ" style="outlineConnect=0;dashed=0;verticalLabelPosition=bottom;verticalAlign=top;align=center;html=1;shape=mxgraph.aws3.traditional_server;fillColor=#7D7C7C;gradientColor=none;" parent="1" vertex="1">
                    <mxGeometry x="250" y="380" width="61.26" height="83" as="geometry"/>
                </mxCell>
                <mxCell id="10" value="発表者" style="sketch=0;outlineConnect=0;fontColor=#232F3E;gradientColor=none;fillColor=#232F3D;strokeColor=none;dashed=0;verticalLabelPosition=bottom;verticalAlign=top;align=center;html=1;fontSize=12;fontStyle=0;aspect=fixed;pointerEvents=1;shape=mxgraph.aws4.user;" parent="1" vertex="1">
                    <mxGeometry x="-50" y="380" width="78" height="78" as="geometry"/>
                </mxCell>
                <mxCell id="12" value="視聴者" style="sketch=0;outlineConnect=0;fontColor=#232F3E;gradientColor=none;fillColor=#232F3D;strokeColor=none;dashed=0;verticalLabelPosition=bottom;verticalAlign=top;align=center;html=1;fontSize=12;fontStyle=0;aspect=fixed;pointerEvents=1;shape=mxgraph.aws4.user;" parent="1" vertex="1">
                    <mxGeometry x="450" y="550" width="78" height="78" as="geometry"/>
                </mxCell>
                <mxCell id="13" value="アプリを起動するとURLが発行される" style="rounded=0;whiteSpace=wrap;html=1;" parent="1" vertex="1">
                    <mxGeometry x="70" y="340" width="120" height="45" as="geometry"/>
                </mxCell>
                <mxCell id="16" value="視聴者にURLを教える" style="rounded=0;whiteSpace=wrap;html=1;" parent="1" vertex="1">
                    <mxGeometry x="80" y="540" width="120" height="45" as="geometry"/>
                </mxCell>
                <mxCell id="17" style="edgeStyle=none;html=1;startArrow=classic;startFill=1;endArrow=none;endFill=0;" parent="1" edge="1">
                    <mxGeometry relative="1" as="geometry">
                        <mxPoint x="50" y="410" as="targetPoint"/>
                        <mxPoint x="220" y="410" as="sourcePoint"/>
                    </mxGeometry>
                </mxCell>
                <mxCell id="18" style="edgeStyle=none;html=1;startArrow=classic;startFill=1;endArrow=none;endFill=0;" parent="1" edge="1">
                    <mxGeometry relative="1" as="geometry">
                        <mxPoint x="55" y="610" as="targetPoint"/>
                        <mxPoint x="400" y="610" as="sourcePoint"/>
                    </mxGeometry>
                </mxCell>
            </root>
        </mxGraphModel>
    </diagram>
    <diagram id="2KKL4_noj3KUaT5EHST9" name="server">
        <mxGraphModel dx="1378" dy="935" grid="1" gridSize="10" guides="1" tooltips="1" connect="1" arrows="1" fold="1" page="0" pageScale="1" pageWidth="827" pageHeight="1169" math="0" shadow="0">
            <root>
                <mxCell id="LKL-ciwFYtLUC1yMY-Yz-0"/>
                <mxCell id="LKL-ciwFYtLUC1yMY-Yz-1" parent="LKL-ciwFYtLUC1yMY-Yz-0"/>
                <mxCell id="LKL-ciwFYtLUC1yMY-Yz-8" style="edgeStyle=none;html=1;entryX=0;entryY=0.5;entryDx=0;entryDy=0;entryPerimeter=0;" parent="LKL-ciwFYtLUC1yMY-Yz-1" source="LKL-ciwFYtLUC1yMY-Yz-2" target="LKL-ciwFYtLUC1yMY-Yz-4" edge="1">
                    <mxGeometry relative="1" as="geometry"/>
                </mxCell>
                <mxCell id="LKL-ciwFYtLUC1yMY-Yz-9" value="&amp;nbsp;connect" style="edgeLabel;html=1;align=center;verticalAlign=middle;resizable=0;points=[];" parent="LKL-ciwFYtLUC1yMY-Yz-8" vertex="1" connectable="0">
                    <mxGeometry x="0.2336" relative="1" as="geometry">
                        <mxPoint x="1" as="offset"/>
                    </mxGeometry>
                </mxCell>
                <mxCell id="LKL-ciwFYtLUC1yMY-Yz-10" style="edgeStyle=none;html=1;entryX=0;entryY=0.5;entryDx=0;entryDy=0;entryPerimeter=0;" parent="LKL-ciwFYtLUC1yMY-Yz-1" source="LKL-ciwFYtLUC1yMY-Yz-2" target="LKL-ciwFYtLUC1yMY-Yz-5" edge="1">
                    <mxGeometry relative="1" as="geometry"/>
                </mxCell>
                <mxCell id="LKL-ciwFYtLUC1yMY-Yz-11" value="send message" style="edgeLabel;html=1;align=center;verticalAlign=middle;resizable=0;points=[];" parent="LKL-ciwFYtLUC1yMY-Yz-10" vertex="1" connectable="0">
                    <mxGeometry x="0.1244" y="-2" relative="1" as="geometry">
                        <mxPoint as="offset"/>
                    </mxGeometry>
                </mxCell>
                <mxCell id="LKL-ciwFYtLUC1yMY-Yz-12" style="edgeStyle=none;html=1;entryX=0;entryY=0.5;entryDx=0;entryDy=0;entryPerimeter=0;" parent="LKL-ciwFYtLUC1yMY-Yz-1" source="LKL-ciwFYtLUC1yMY-Yz-2" target="LKL-ciwFYtLUC1yMY-Yz-6" edge="1">
                    <mxGeometry relative="1" as="geometry"/>
                </mxCell>
                <mxCell id="LKL-ciwFYtLUC1yMY-Yz-13" value="disconnect" style="edgeLabel;html=1;align=center;verticalAlign=middle;resizable=0;points=[];" parent="LKL-ciwFYtLUC1yMY-Yz-12" vertex="1" connectable="0">
                    <mxGeometry x="0.4107" y="4" relative="1" as="geometry">
                        <mxPoint as="offset"/>
                    </mxGeometry>
                </mxCell>
                <mxCell id="LKL-ciwFYtLUC1yMY-Yz-23" style="edgeStyle=none;html=1;" parent="LKL-ciwFYtLUC1yMY-Yz-1" source="LKL-ciwFYtLUC1yMY-Yz-2" target="LKL-ciwFYtLUC1yMY-Yz-3" edge="1">
                    <mxGeometry relative="1" as="geometry"/>
                </mxCell>
                <mxCell id="LKL-ciwFYtLUC1yMY-Yz-24" value="message recived" style="edgeLabel;html=1;align=center;verticalAlign=middle;resizable=0;points=[];" parent="LKL-ciwFYtLUC1yMY-Yz-23" vertex="1" connectable="0">
                    <mxGeometry x="-0.329" y="-3" relative="1" as="geometry">
                        <mxPoint x="-16" y="-6" as="offset"/>
                    </mxGeometry>
                </mxCell>
                <mxCell id="LKL-ciwFYtLUC1yMY-Yz-2" value="" style="sketch=0;points=[[0,0,0],[0.25,0,0],[0.5,0,0],[0.75,0,0],[1,0,0],[0,1,0],[0.25,1,0],[0.5,1,0],[0.75,1,0],[1,1,0],[0,0.25,0],[0,0.5,0],[0,0.75,0],[1,0.25,0],[1,0.5,0],[1,0.75,0]];outlineConnect=0;fontColor=#232F3E;gradientColor=#945DF2;gradientDirection=north;fillColor=#5A30B5;strokeColor=#ffffff;dashed=0;verticalLabelPosition=bottom;verticalAlign=top;align=center;html=1;fontSize=12;fontStyle=0;aspect=fixed;shape=mxgraph.aws4.resourceIcon;resIcon=mxgraph.aws4.api_gateway;" parent="LKL-ciwFYtLUC1yMY-Yz-1" vertex="1">
                    <mxGeometry x="240" y="320" width="78" height="78" as="geometry"/>
                </mxCell>
                <mxCell id="LKL-ciwFYtLUC1yMY-Yz-3" value="発表者" style="sketch=0;outlineConnect=0;fontColor=#232F3E;gradientColor=none;fillColor=#232F3D;strokeColor=none;dashed=0;verticalLabelPosition=bottom;verticalAlign=top;align=center;html=1;fontSize=12;fontStyle=0;aspect=fixed;pointerEvents=1;shape=mxgraph.aws4.user;" parent="LKL-ciwFYtLUC1yMY-Yz-1" vertex="1">
                    <mxGeometry x="60" y="238" width="78" height="78" as="geometry"/>
                </mxCell>
                <mxCell id="LKL-ciwFYtLUC1yMY-Yz-14" style="edgeStyle=none;html=1;" parent="LKL-ciwFYtLUC1yMY-Yz-1" source="LKL-ciwFYtLUC1yMY-Yz-4" target="LKL-ciwFYtLUC1yMY-Yz-7" edge="1">
                    <mxGeometry relative="1" as="geometry"/>
                </mxCell>
                <mxCell id="LKL-ciwFYtLUC1yMY-Yz-15" value="session save" style="edgeLabel;html=1;align=center;verticalAlign=middle;resizable=0;points=[];" parent="LKL-ciwFYtLUC1yMY-Yz-14" vertex="1" connectable="0">
                    <mxGeometry x="0.1011" y="2" relative="1" as="geometry">
                        <mxPoint as="offset"/>
                    </mxGeometry>
                </mxCell>
                <mxCell id="LKL-ciwFYtLUC1yMY-Yz-4" value="" style="sketch=0;points=[[0,0,0],[0.25,0,0],[0.5,0,0],[0.75,0,0],[1,0,0],[0,1,0],[0.25,1,0],[0.5,1,0],[0.75,1,0],[1,1,0],[0,0.25,0],[0,0.5,0],[0,0.75,0],[1,0.25,0],[1,0.5,0],[1,0.75,0]];outlineConnect=0;fontColor=#232F3E;gradientColor=#F78E04;gradientDirection=north;fillColor=#D05C17;strokeColor=#ffffff;dashed=0;verticalLabelPosition=bottom;verticalAlign=top;align=center;html=1;fontSize=12;fontStyle=0;aspect=fixed;shape=mxgraph.aws4.resourceIcon;resIcon=mxgraph.aws4.lambda;" parent="LKL-ciwFYtLUC1yMY-Yz-1" vertex="1">
                    <mxGeometry x="480" y="160" width="78" height="78" as="geometry"/>
                </mxCell>
                <mxCell id="LKL-ciwFYtLUC1yMY-Yz-16" style="edgeStyle=none;html=1;" parent="LKL-ciwFYtLUC1yMY-Yz-1" source="LKL-ciwFYtLUC1yMY-Yz-5" target="LKL-ciwFYtLUC1yMY-Yz-7" edge="1">
                    <mxGeometry relative="1" as="geometry"/>
                </mxCell>
                <mxCell id="LKL-ciwFYtLUC1yMY-Yz-17" value="session select" style="edgeLabel;html=1;align=center;verticalAlign=middle;resizable=0;points=[];" parent="LKL-ciwFYtLUC1yMY-Yz-16" vertex="1" connectable="0">
                    <mxGeometry x="0.3023" relative="1" as="geometry">
                        <mxPoint as="offset"/>
                    </mxGeometry>
                </mxCell>
                <mxCell id="LKL-ciwFYtLUC1yMY-Yz-5" value="" style="sketch=0;points=[[0,0,0],[0.25,0,0],[0.5,0,0],[0.75,0,0],[1,0,0],[0,1,0],[0.25,1,0],[0.5,1,0],[0.75,1,0],[1,1,0],[0,0.25,0],[0,0.5,0],[0,0.75,0],[1,0.25,0],[1,0.5,0],[1,0.75,0]];outlineConnect=0;fontColor=#232F3E;gradientColor=#F78E04;gradientDirection=north;fillColor=#D05C17;strokeColor=#ffffff;dashed=0;verticalLabelPosition=bottom;verticalAlign=top;align=center;html=1;fontSize=12;fontStyle=0;aspect=fixed;shape=mxgraph.aws4.resourceIcon;resIcon=mxgraph.aws4.lambda;" parent="LKL-ciwFYtLUC1yMY-Yz-1" vertex="1">
                    <mxGeometry x="480" y="320" width="78" height="78" as="geometry"/>
                </mxCell>
                <mxCell id="LKL-ciwFYtLUC1yMY-Yz-18" style="edgeStyle=none;html=1;" parent="LKL-ciwFYtLUC1yMY-Yz-1" source="LKL-ciwFYtLUC1yMY-Yz-6" target="LKL-ciwFYtLUC1yMY-Yz-7" edge="1">
                    <mxGeometry relative="1" as="geometry"/>
                </mxCell>
                <mxCell id="LKL-ciwFYtLUC1yMY-Yz-19" value="session delete" style="edgeLabel;html=1;align=center;verticalAlign=middle;resizable=0;points=[];" parent="LKL-ciwFYtLUC1yMY-Yz-18" vertex="1" connectable="0">
                    <mxGeometry x="-0.4566" y="-1" relative="1" as="geometry">
                        <mxPoint x="32" y="-22" as="offset"/>
                    </mxGeometry>
                </mxCell>
                <mxCell id="LKL-ciwFYtLUC1yMY-Yz-6" value="" style="sketch=0;points=[[0,0,0],[0.25,0,0],[0.5,0,0],[0.75,0,0],[1,0,0],[0,1,0],[0.25,1,0],[0.5,1,0],[0.75,1,0],[1,1,0],[0,0.25,0],[0,0.5,0],[0,0.75,0],[1,0.25,0],[1,0.5,0],[1,0.75,0]];outlineConnect=0;fontColor=#232F3E;gradientColor=#F78E04;gradientDirection=north;fillColor=#D05C17;strokeColor=#ffffff;dashed=0;verticalLabelPosition=bottom;verticalAlign=top;align=center;html=1;fontSize=12;fontStyle=0;aspect=fixed;shape=mxgraph.aws4.resourceIcon;resIcon=mxgraph.aws4.lambda;" parent="LKL-ciwFYtLUC1yMY-Yz-1" vertex="1">
                    <mxGeometry x="480" y="480" width="78" height="78" as="geometry"/>
                </mxCell>
                <mxCell id="LKL-ciwFYtLUC1yMY-Yz-7" value="" style="sketch=0;points=[[0,0,0],[0.25,0,0],[0.5,0,0],[0.75,0,0],[1,0,0],[0,1,0],[0.25,1,0],[0.5,1,0],[0.75,1,0],[1,1,0],[0,0.25,0],[0,0.5,0],[0,0.75,0],[1,0.25,0],[1,0.5,0],[1,0.75,0]];outlineConnect=0;fontColor=#232F3E;gradientColor=#4D72F3;gradientDirection=north;fillColor=#3334B9;strokeColor=#ffffff;dashed=0;verticalLabelPosition=bottom;verticalAlign=top;align=center;html=1;fontSize=12;fontStyle=0;aspect=fixed;shape=mxgraph.aws4.resourceIcon;resIcon=mxgraph.aws4.dynamodb;" parent="LKL-ciwFYtLUC1yMY-Yz-1" vertex="1">
                    <mxGeometry x="760" y="320" width="78" height="78" as="geometry"/>
                </mxCell>
                <mxCell id="LKL-ciwFYtLUC1yMY-Yz-21" style="edgeStyle=none;html=1;" parent="LKL-ciwFYtLUC1yMY-Yz-1" source="LKL-ciwFYtLUC1yMY-Yz-20" target="LKL-ciwFYtLUC1yMY-Yz-2" edge="1">
                    <mxGeometry relative="1" as="geometry"/>
                </mxCell>
                <mxCell id="LKL-ciwFYtLUC1yMY-Yz-22" value="reaction" style="edgeLabel;html=1;align=center;verticalAlign=middle;resizable=0;points=[];" parent="LKL-ciwFYtLUC1yMY-Yz-21" vertex="1" connectable="0">
                    <mxGeometry x="-0.0435" relative="1" as="geometry">
                        <mxPoint as="offset"/>
                    </mxGeometry>
                </mxCell>
                <mxCell id="LKL-ciwFYtLUC1yMY-Yz-20" value="視聴者" style="sketch=0;outlineConnect=0;fontColor=#232F3E;gradientColor=none;fillColor=#232F3D;strokeColor=none;dashed=0;verticalLabelPosition=bottom;verticalAlign=top;align=center;html=1;fontSize=12;fontStyle=0;aspect=fixed;pointerEvents=1;shape=mxgraph.aws4.user;" parent="LKL-ciwFYtLUC1yMY-Yz-1" vertex="1">
                    <mxGeometry x="60" y="402" width="78" height="78" as="geometry"/>
                </mxCell>
                <mxCell id="LKL-ciwFYtLUC1yMY-Yz-26" value="パーティションキー： connectionId (WebSocket の connectionId)&lt;br&gt;GSI&amp;nbsp; &amp;nbsp; &amp;nbsp; &amp;nbsp; &amp;nbsp; &amp;nbsp; &amp;nbsp; &amp;nbsp; &amp;nbsp; &amp;nbsp; &amp;nbsp; &amp;nbsp; &amp;nbsp; ： eventCode (発表者がアプリケーションを起動すると発行)" style="rounded=0;whiteSpace=wrap;html=1;align=left;strokeColor=none;" parent="LKL-ciwFYtLUC1yMY-Yz-1" vertex="1">
                    <mxGeometry x="760" y="410" width="480" height="70" as="geometry"/>
                </mxCell>
                <mxCell id="kTANxVnOucYX_wc1jrSD-1" style="edgeStyle=none;html=1;entryX=1;entryY=0.25;entryDx=0;entryDy=0;entryPerimeter=0;endArrow=none;endFill=0;dashed=1;" edge="1" parent="LKL-ciwFYtLUC1yMY-Yz-1" source="kTANxVnOucYX_wc1jrSD-0" target="LKL-ciwFYtLUC1yMY-Yz-4">
                    <mxGeometry relative="1" as="geometry"/>
                </mxCell>
                <mxCell id="kTANxVnOucYX_wc1jrSD-0" value="初回接続時に connectionId と eventCode を保存" style="rounded=0;whiteSpace=wrap;html=1;align=left;" vertex="1" parent="LKL-ciwFYtLUC1yMY-Yz-1">
                    <mxGeometry x="570" y="70" width="170" height="70" as="geometry"/>
                </mxCell>
                <mxCell id="kTANxVnOucYX_wc1jrSD-3" style="edgeStyle=none;html=1;entryX=1;entryY=0.25;entryDx=0;entryDy=0;entryPerimeter=0;dashed=1;endArrow=none;endFill=0;" edge="1" parent="LKL-ciwFYtLUC1yMY-Yz-1" source="kTANxVnOucYX_wc1jrSD-2" target="LKL-ciwFYtLUC1yMY-Yz-5">
                    <mxGeometry relative="1" as="geometry"/>
                </mxCell>
                <mxCell id="kTANxVnOucYX_wc1jrSD-2" value="視聴者から送信されたメッセージを発表者に送信する" style="rounded=0;whiteSpace=wrap;html=1;align=left;" vertex="1" parent="LKL-ciwFYtLUC1yMY-Yz-1">
                    <mxGeometry x="700" y="168" width="170" height="70" as="geometry"/>
                </mxCell>
                <mxCell id="kTANxVnOucYX_wc1jrSD-5" style="edgeStyle=none;html=1;dashed=1;endArrow=none;endFill=0;" edge="1" parent="LKL-ciwFYtLUC1yMY-Yz-1" source="kTANxVnOucYX_wc1jrSD-4" target="LKL-ciwFYtLUC1yMY-Yz-6">
                    <mxGeometry relative="1" as="geometry"/>
                </mxCell>
                <mxCell id="kTANxVnOucYX_wc1jrSD-4" value="接続が閉じたときに DynamoDB からデータを削除" style="rounded=0;whiteSpace=wrap;html=1;align=left;" vertex="1" parent="LKL-ciwFYtLUC1yMY-Yz-1">
                    <mxGeometry x="620" y="558" width="170" height="70" as="geometry"/>
                </mxCell>
                <mxCell id="96DWSQiwI-bvW-ahN9Ol-1" style="edgeStyle=none;html=1;dashed=1;fontSize=12;endArrow=none;endFill=0;" edge="1" parent="LKL-ciwFYtLUC1yMY-Yz-1" source="96DWSQiwI-bvW-ahN9Ol-0" target="LKL-ciwFYtLUC1yMY-Yz-2">
                    <mxGeometry relative="1" as="geometry"/>
                </mxCell>
                <mxCell id="96DWSQiwI-bvW-ahN9Ol-0" value="WebSocket" style="rounded=0;whiteSpace=wrap;html=1;align=left;" vertex="1" parent="LKL-ciwFYtLUC1yMY-Yz-1">
                    <mxGeometry x="220" y="220" width="80" height="40" as="geometry"/>
                </mxCell>
            </root>
        </mxGraphModel>
    </diagram>
    <diagram id="m-Ul2pYZkCUhdYk3YuJ2" name="viewer">
        <mxGraphModel dx="1778" dy="1335" grid="1" gridSize="10" guides="1" tooltips="1" connect="1" arrows="1" fold="1" page="0" pageScale="1" pageWidth="827" pageHeight="1169" math="0" shadow="0">
            <root>
                <mxCell id="U9JWeB0vVeR8TLZMWZgH-0"/>
                <mxCell id="U9JWeB0vVeR8TLZMWZgH-1" parent="U9JWeB0vVeR8TLZMWZgH-0"/>
                <mxCell id="VfjlbDkKjgeY1H9jjCyT-2" value="" style="ellipse;whiteSpace=wrap;html=1;fillColor=none;" vertex="1" parent="U9JWeB0vVeR8TLZMWZgH-1">
                    <mxGeometry x="755" y="-95" width="270" height="210" as="geometry"/>
                </mxCell>
                <mxCell id="VfjlbDkKjgeY1H9jjCyT-1" value="" style="ellipse;whiteSpace=wrap;html=1;fillColor=none;" vertex="1" parent="U9JWeB0vVeR8TLZMWZgH-1">
                    <mxGeometry x="-110" y="40" width="680" height="530" as="geometry"/>
                </mxCell>
                <mxCell id="q-Eiu1JJYU3CHhzZXmRm-0" value="OS" style="rounded=0;whiteSpace=wrap;html=1;" parent="U9JWeB0vVeR8TLZMWZgH-1" vertex="1">
                    <mxGeometry y="490" width="420" height="40" as="geometry"/>
                </mxCell>
                <mxCell id="q-Eiu1JJYU3CHhzZXmRm-1" value="メインプロセス（Node.js）" style="rounded=0;whiteSpace=wrap;html=1;" parent="U9JWeB0vVeR8TLZMWZgH-1" vertex="1">
                    <mxGeometry y="340" width="420" height="50" as="geometry"/>
                </mxCell>
                <mxCell id="q-Eiu1JJYU3CHhzZXmRm-2" value="レンダラープロセス&lt;br&gt;traybar" style="rounded=0;whiteSpace=wrap;html=1;" parent="U9JWeB0vVeR8TLZMWZgH-1" vertex="1">
                    <mxGeometry y="80" width="120" height="120" as="geometry"/>
                </mxCell>
                <mxCell id="q-Eiu1JJYU3CHhzZXmRm-3" value="レンダラープロセス&lt;br&gt;setting" style="rounded=0;whiteSpace=wrap;html=1;" parent="U9JWeB0vVeR8TLZMWZgH-1" vertex="1">
                    <mxGeometry x="150" y="80" width="120" height="120" as="geometry"/>
                </mxCell>
                <mxCell id="q-Eiu1JJYU3CHhzZXmRm-4" value="レンダラープロセス&lt;br&gt;viewer" style="rounded=0;whiteSpace=wrap;html=1;" parent="U9JWeB0vVeR8TLZMWZgH-1" vertex="1">
                    <mxGeometry x="300" y="80" width="120" height="120" as="geometry"/>
                </mxCell>
                <mxCell id="q-Eiu1JJYU3CHhzZXmRm-6" value="" style="endArrow=classic;startArrow=classic;html=1;" parent="U9JWeB0vVeR8TLZMWZgH-1" edge="1">
                    <mxGeometry width="50" height="50" relative="1" as="geometry">
                        <mxPoint x="209.5" y="290" as="sourcePoint"/>
                        <mxPoint x="209.5" y="220" as="targetPoint"/>
                    </mxGeometry>
                </mxCell>
                <mxCell id="q-Eiu1JJYU3CHhzZXmRm-7" value="IPC" style="ellipse;whiteSpace=wrap;html=1;aspect=fixed;" parent="U9JWeB0vVeR8TLZMWZgH-1" vertex="1">
                    <mxGeometry x="230" y="230" width="50" height="50" as="geometry"/>
                </mxCell>
                <mxCell id="q-Eiu1JJYU3CHhzZXmRm-9" style="edgeStyle=orthogonalEdgeStyle;html=1;entryX=0.5;entryY=0;entryDx=0;entryDy=0;curved=1;" parent="U9JWeB0vVeR8TLZMWZgH-1" source="q-Eiu1JJYU3CHhzZXmRm-8" target="q-Eiu1JJYU3CHhzZXmRm-4" edge="1">
                    <mxGeometry relative="1" as="geometry"/>
                </mxCell>
                <mxCell id="q-Eiu1JJYU3CHhzZXmRm-10" value="Recived Message" style="edgeLabel;html=1;align=center;verticalAlign=middle;resizable=0;points=[];" parent="q-Eiu1JJYU3CHhzZXmRm-9" vertex="1" connectable="0">
                    <mxGeometry x="-0.33" y="3" relative="1" as="geometry">
                        <mxPoint x="-33" y="7" as="offset"/>
                    </mxGeometry>
                </mxCell>
                <mxCell id="q-Eiu1JJYU3CHhzZXmRm-8" value="AWS" style="rounded=0;whiteSpace=wrap;html=1;" parent="U9JWeB0vVeR8TLZMWZgH-1" vertex="1">
                    <mxGeometry x="550" y="-50" width="120" height="120" as="geometry"/>
                </mxCell>
                <mxCell id="q-Eiu1JJYU3CHhzZXmRm-11" value="Native APIs" style="ellipse;whiteSpace=wrap;html=1;aspect=fixed;" parent="U9JWeB0vVeR8TLZMWZgH-1" vertex="1">
                    <mxGeometry x="230" y="410" width="50" height="50" as="geometry"/>
                </mxCell>
                <mxCell id="q-Eiu1JJYU3CHhzZXmRm-12" value="" style="endArrow=classic;startArrow=classic;html=1;" parent="U9JWeB0vVeR8TLZMWZgH-1" edge="1">
                    <mxGeometry width="50" height="50" relative="1" as="geometry">
                        <mxPoint x="209.5" y="470" as="sourcePoint"/>
                        <mxPoint x="209.5" y="400" as="targetPoint"/>
                    </mxGeometry>
                </mxCell>
                <mxCell id="q-Eiu1JJYU3CHhzZXmRm-13" value="context&lt;br&gt;bridge" style="ellipse;whiteSpace=wrap;html=1;aspect=fixed;" parent="U9JWeB0vVeR8TLZMWZgH-1" vertex="1">
                    <mxGeometry x="185" y="300" width="50" height="50" as="geometry"/>
                </mxCell>
                <mxCell id="q-Eiu1JJYU3CHhzZXmRm-15" style="edgeStyle=orthogonalEdgeStyle;curved=1;html=1;entryX=1;entryY=0.5;entryDx=0;entryDy=0;" parent="U9JWeB0vVeR8TLZMWZgH-1" source="q-Eiu1JJYU3CHhzZXmRm-14" target="q-Eiu1JJYU3CHhzZXmRm-8" edge="1">
                    <mxGeometry relative="1" as="geometry"/>
                </mxCell>
                <mxCell id="q-Eiu1JJYU3CHhzZXmRm-16" value="Send message" style="edgeLabel;html=1;align=center;verticalAlign=middle;resizable=0;points=[];" parent="q-Eiu1JJYU3CHhzZXmRm-15" vertex="1" connectable="0">
                    <mxGeometry x="-0.2875" y="-3" relative="1" as="geometry">
                        <mxPoint as="offset"/>
                    </mxGeometry>
                </mxCell>
                <mxCell id="q-Eiu1JJYU3CHhzZXmRm-14" value="ブラウザー" style="rounded=0;whiteSpace=wrap;html=1;" parent="U9JWeB0vVeR8TLZMWZgH-1" vertex="1">
                    <mxGeometry x="830" y="-50" width="120" height="120" as="geometry"/>
                </mxCell>
                <mxCell id="VfjlbDkKjgeY1H9jjCyT-0" value="発表者" style="text;html=1;strokeColor=#666666;fillColor=#f5f5f5;align=center;verticalAlign=middle;whiteSpace=wrap;rounded=0;fontColor=#333333;fontSize=16;" vertex="1" parent="U9JWeB0vVeR8TLZMWZgH-1">
                    <mxGeometry x="-140" y="280" width="70" height="30" as="geometry"/>
                </mxCell>
                <mxCell id="VfjlbDkKjgeY1H9jjCyT-3" value="視聴者" style="text;html=1;strokeColor=#666666;fillColor=#f5f5f5;align=center;verticalAlign=middle;whiteSpace=wrap;rounded=0;fontColor=#333333;fontSize=16;" vertex="1" parent="U9JWeB0vVeR8TLZMWZgH-1">
                    <mxGeometry x="990" y="-10" width="70" height="30" as="geometry"/>
                </mxCell>
                <mxCell id="9Tri1e2vvNs-V41nGOgp-1" style="edgeStyle=none;html=1;dashed=1;fontSize=12;endArrow=none;endFill=0;" edge="1" parent="U9JWeB0vVeR8TLZMWZgH-1" source="9Tri1e2vvNs-V41nGOgp-0" target="q-Eiu1JJYU3CHhzZXmRm-2">
                    <mxGeometry relative="1" as="geometry"/>
                </mxCell>
                <mxCell id="9Tri1e2vvNs-V41nGOgp-0" value="タスクバー&lt;br&gt;アプリケーションを終了できる" style="rounded=0;whiteSpace=wrap;html=1;align=left;" vertex="1" parent="U9JWeB0vVeR8TLZMWZgH-1">
                    <mxGeometry x="-140" y="-22.5" width="120" height="65" as="geometry"/>
                </mxCell>
                <mxCell id="9Tri1e2vvNs-V41nGOgp-3" style="edgeStyle=none;html=1;entryX=0.5;entryY=0;entryDx=0;entryDy=0;dashed=1;fontSize=12;endArrow=none;endFill=0;" edge="1" parent="U9JWeB0vVeR8TLZMWZgH-1" source="9Tri1e2vvNs-V41nGOgp-2" target="q-Eiu1JJYU3CHhzZXmRm-3">
                    <mxGeometry relative="1" as="geometry"/>
                </mxCell>
                <mxCell id="9Tri1e2vvNs-V41nGOgp-2" value="視聴者用URLが発行される" style="rounded=0;whiteSpace=wrap;html=1;align=left;" vertex="1" parent="U9JWeB0vVeR8TLZMWZgH-1">
                    <mxGeometry x="30" y="-50" width="120" height="65" as="geometry"/>
                </mxCell>
                <mxCell id="9Tri1e2vvNs-V41nGOgp-5" style="edgeStyle=none;html=1;dashed=1;fontSize=12;endArrow=none;endFill=0;" edge="1" parent="U9JWeB0vVeR8TLZMWZgH-1" source="9Tri1e2vvNs-V41nGOgp-4" target="q-Eiu1JJYU3CHhzZXmRm-4">
                    <mxGeometry relative="1" as="geometry"/>
                </mxCell>
                <mxCell id="9Tri1e2vvNs-V41nGOgp-4" value="視聴者からのリアクションが描画される" style="rounded=0;whiteSpace=wrap;html=1;align=left;" vertex="1" parent="U9JWeB0vVeR8TLZMWZgH-1">
                    <mxGeometry x="210" y="-60" width="120" height="65" as="geometry"/>
                </mxCell>
                <mxCell id="8y4u3awBM2j1EBlAK9tV-1" style="edgeStyle=none;html=1;dashed=1;fontSize=12;endArrow=none;endFill=0;" edge="1" parent="U9JWeB0vVeR8TLZMWZgH-1" source="8y4u3awBM2j1EBlAK9tV-0" target="VfjlbDkKjgeY1H9jjCyT-1">
                    <mxGeometry relative="1" as="geometry"/>
                </mxCell>
                <mxCell id="8y4u3awBM2j1EBlAK9tV-0" value="Electron" style="rounded=0;whiteSpace=wrap;html=1;align=center;" vertex="1" parent="U9JWeB0vVeR8TLZMWZgH-1">
                    <mxGeometry x="565" y="490" width="90" height="35" as="geometry"/>
                </mxCell>
            </root>
        </mxGraphModel>
    </diagram>
    <diagram id="fn6XyQj49I9nG9q5d_SQ" name="シーケンス">
        <mxGraphModel dx="1778" dy="1335" grid="1" gridSize="10" guides="1" tooltips="1" connect="1" arrows="1" fold="1" page="0" pageScale="1" pageWidth="827" pageHeight="1169" math="0" shadow="0">
            <root>
                <mxCell id="b1NcLydH1khCokro9SZk-0"/>
                <mxCell id="b1NcLydH1khCokro9SZk-1" parent="b1NcLydH1khCokro9SZk-0"/>
                <mxCell id="pe0ybkK2dXnUqtDELvgH-2" style="edgeStyle=none;html=1;dashed=1;fontSize=12;endArrow=none;endFill=0;" edge="1" parent="b1NcLydH1khCokro9SZk-1" source="-n8tRXjWXaonVK_9_TWO-0">
                    <mxGeometry relative="1" as="geometry">
                        <mxPoint x="-160" y="850" as="targetPoint"/>
                    </mxGeometry>
                </mxCell>
                <mxCell id="-n8tRXjWXaonVK_9_TWO-0" value="メインプロセス&lt;br&gt;Node.js" style="rounded=0;whiteSpace=wrap;html=1;fontSize=12;" vertex="1" parent="b1NcLydH1khCokro9SZk-1">
                    <mxGeometry x="-240" y="-40" width="160" height="40" as="geometry"/>
                </mxCell>
                <mxCell id="pe0ybkK2dXnUqtDELvgH-3" style="edgeStyle=none;html=1;dashed=1;fontSize=12;endArrow=none;endFill=0;" edge="1" parent="b1NcLydH1khCokro9SZk-1" source="67rVHbtENYoDQ4-flsCa-0">
                    <mxGeometry relative="1" as="geometry">
                        <mxPoint x="40" y="850" as="targetPoint"/>
                    </mxGeometry>
                </mxCell>
                <mxCell id="67rVHbtENYoDQ4-flsCa-0" value="レンダラープロセス&lt;br&gt;イベント設定画面" style="rounded=0;whiteSpace=wrap;html=1;fontSize=12;" vertex="1" parent="b1NcLydH1khCokro9SZk-1">
                    <mxGeometry x="-40" y="-40" width="160" height="40" as="geometry"/>
                </mxCell>
                <mxCell id="pe0ybkK2dXnUqtDELvgH-4" style="edgeStyle=none;html=1;dashed=1;fontSize=12;endArrow=none;endFill=0;" edge="1" parent="b1NcLydH1khCokro9SZk-1" source="67rVHbtENYoDQ4-flsCa-1">
                    <mxGeometry relative="1" as="geometry">
                        <mxPoint x="240" y="860" as="targetPoint"/>
                    </mxGeometry>
                </mxCell>
                <mxCell id="67rVHbtENYoDQ4-flsCa-1" value="レンダラープロセス&lt;br&gt;タスクバー" style="rounded=0;whiteSpace=wrap;html=1;fontSize=12;" vertex="1" parent="b1NcLydH1khCokro9SZk-1">
                    <mxGeometry x="160" y="-40" width="160" height="40" as="geometry"/>
                </mxCell>
                <mxCell id="pe0ybkK2dXnUqtDELvgH-5" style="edgeStyle=none;html=1;dashed=1;fontSize=12;endArrow=none;endFill=0;" edge="1" parent="b1NcLydH1khCokro9SZk-1" source="67rVHbtENYoDQ4-flsCa-2">
                    <mxGeometry relative="1" as="geometry">
                        <mxPoint x="440" y="860" as="targetPoint"/>
                    </mxGeometry>
                </mxCell>
                <mxCell id="67rVHbtENYoDQ4-flsCa-2" value="レンダラープロセス&lt;br&gt;リアクション描画画面" style="rounded=0;whiteSpace=wrap;html=1;fontSize=12;" vertex="1" parent="b1NcLydH1khCokro9SZk-1">
                    <mxGeometry x="360" y="-40" width="160" height="40" as="geometry"/>
                </mxCell>
                <mxCell id="pe0ybkK2dXnUqtDELvgH-6" style="edgeStyle=none;html=1;dashed=1;fontSize=12;endArrow=none;endFill=0;" edge="1" parent="b1NcLydH1khCokro9SZk-1" source="pe0ybkK2dXnUqtDELvgH-0">
                    <mxGeometry relative="1" as="geometry">
                        <mxPoint x="640" y="862" as="targetPoint"/>
                    </mxGeometry>
                </mxCell>
                <mxCell id="pe0ybkK2dXnUqtDELvgH-0" value="AWS&lt;br&gt;WebSocketサーバー" style="rounded=0;whiteSpace=wrap;html=1;fontSize=12;" vertex="1" parent="b1NcLydH1khCokro9SZk-1">
                    <mxGeometry x="560" y="-40" width="160" height="40" as="geometry"/>
                </mxCell>
                <mxCell id="pe0ybkK2dXnUqtDELvgH-7" style="edgeStyle=none;html=1;dashed=1;fontSize=12;endArrow=none;endFill=0;" edge="1" parent="b1NcLydH1khCokro9SZk-1" source="pe0ybkK2dXnUqtDELvgH-1">
                    <mxGeometry relative="1" as="geometry">
                        <mxPoint x="840" y="880" as="targetPoint"/>
                    </mxGeometry>
                </mxCell>
                <mxCell id="pe0ybkK2dXnUqtDELvgH-1" value="クライアント" style="rounded=0;whiteSpace=wrap;html=1;fontSize=12;" vertex="1" parent="b1NcLydH1khCokro9SZk-1">
                    <mxGeometry x="760" y="-40" width="160" height="40" as="geometry"/>
                </mxCell>
                <mxCell id="pe0ybkK2dXnUqtDELvgH-10" value="イベントコード発行&lt;br&gt;uuidv4" style="rounded=0;whiteSpace=wrap;html=1;fontSize=12;" vertex="1" parent="b1NcLydH1khCokro9SZk-1">
                    <mxGeometry x="-225" y="60" width="130" height="40" as="geometry"/>
                </mxCell>
                <mxCell id="pe0ybkK2dXnUqtDELvgH-11" value="" style="endArrow=classic;html=1;fontSize=12;" edge="1" parent="b1NcLydH1khCokro9SZk-1">
                    <mxGeometry width="50" height="50" relative="1" as="geometry">
                        <mxPoint x="-140" y="160" as="sourcePoint"/>
                        <mxPoint x="20" y="160" as="targetPoint"/>
                    </mxGeometry>
                </mxCell>
                <mxCell id="pe0ybkK2dXnUqtDELvgH-12" value="" style="endArrow=classic;html=1;fontSize=12;" edge="1" parent="b1NcLydH1khCokro9SZk-1">
                    <mxGeometry width="50" height="50" relative="1" as="geometry">
                        <mxPoint x="-140" y="200" as="sourcePoint"/>
                        <mxPoint x="230" y="200" as="targetPoint"/>
                    </mxGeometry>
                </mxCell>
                <mxCell id="pe0ybkK2dXnUqtDELvgH-13" value="" style="endArrow=classic;html=1;fontSize=12;" edge="1" parent="b1NcLydH1khCokro9SZk-1">
                    <mxGeometry width="50" height="50" relative="1" as="geometry">
                        <mxPoint x="-140" y="239.5" as="sourcePoint"/>
                        <mxPoint x="430" y="239.5" as="targetPoint"/>
                    </mxGeometry>
                </mxCell>
                <mxCell id="pe0ybkK2dXnUqtDELvgH-14" value="DynamoDB" style="shape=cylinder3;whiteSpace=wrap;html=1;boundedLbl=1;backgroundOutline=1;size=15;fontSize=12;fillColor=#f5f5f5;fontColor=#333333;strokeColor=#666666;" vertex="1" parent="b1NcLydH1khCokro9SZk-1">
                    <mxGeometry x="660" y="230" width="100" height="80" as="geometry"/>
                </mxCell>
                <mxCell id="pe0ybkK2dXnUqtDELvgH-15" value="パーティションキー： WebSocketコネクションID&lt;br&gt;GSI： イベントコード" style="text;html=1;align=left;verticalAlign=middle;resizable=0;points=[];autosize=1;strokeColor=none;fillColor=none;fontSize=12;" vertex="1" parent="b1NcLydH1khCokro9SZk-1">
                    <mxGeometry x="660" y="330" width="280" height="30" as="geometry"/>
                </mxCell>
                <mxCell id="pe0ybkK2dXnUqtDELvgH-18" value="" style="endArrow=classic;html=1;fontSize=12;" edge="1" parent="b1NcLydH1khCokro9SZk-1">
                    <mxGeometry width="50" height="50" relative="1" as="geometry">
                        <mxPoint x="450" y="280" as="sourcePoint"/>
                        <mxPoint x="630" y="280" as="targetPoint"/>
                    </mxGeometry>
                </mxCell>
                <mxCell id="pe0ybkK2dXnUqtDELvgH-19" value="" style="endArrow=classic;html=1;fontSize=12;dashed=1;" edge="1" parent="b1NcLydH1khCokro9SZk-1">
                    <mxGeometry width="50" height="50" relative="1" as="geometry">
                        <mxPoint x="55" y="400" as="sourcePoint"/>
                        <mxPoint x="830" y="400" as="targetPoint"/>
                    </mxGeometry>
                </mxCell>
                <mxCell id="pe0ybkK2dXnUqtDELvgH-20" value="" style="endArrow=classic;html=1;fontSize=12;" edge="1" parent="b1NcLydH1khCokro9SZk-1">
                    <mxGeometry width="50" height="50" relative="1" as="geometry">
                        <mxPoint x="830" y="440" as="sourcePoint"/>
                        <mxPoint x="650" y="440" as="targetPoint"/>
                    </mxGeometry>
                </mxCell>
                <mxCell id="pe0ybkK2dXnUqtDELvgH-21" value="リアクション" style="text;html=1;align=left;verticalAlign=middle;resizable=0;points=[];autosize=1;strokeColor=none;fillColor=none;fontSize=12;" vertex="1" parent="b1NcLydH1khCokro9SZk-1">
                    <mxGeometry x="750" y="450" width="90" height="20" as="geometry"/>
                </mxCell>
                <mxCell id="pe0ybkK2dXnUqtDELvgH-22" value="" style="endArrow=classic;html=1;fontSize=12;" edge="1" parent="b1NcLydH1khCokro9SZk-1">
                    <mxGeometry width="50" height="50" relative="1" as="geometry">
                        <mxPoint x="631" y="479.5" as="sourcePoint"/>
                        <mxPoint x="451" y="479.5" as="targetPoint"/>
                    </mxGeometry>
                </mxCell>
                <mxCell id="pe0ybkK2dXnUqtDELvgH-23" value="URLをクライアントに共有する" style="text;html=1;align=left;verticalAlign=middle;resizable=0;points=[];autosize=1;strokeColor=none;fillColor=none;fontSize=12;" vertex="1" parent="b1NcLydH1khCokro9SZk-1">
                    <mxGeometry x="60" y="370" width="180" height="20" as="geometry"/>
                </mxCell>
            </root>
        </mxGraphModel>
    </diagram>
</mxfile>